<svg xmlns="http://www.w3.org/2000/svg" width="212.001" height="610.157" viewBox="0 0 212.001 610.157">
  <g id="avatar" transform="translate(146.895 120)">
    <path id="Path_73" data-name="Path 73" d="M275.368,481.5a13.749,13.749,0,0,0-4.483-20.6l7.248-48.32L255.1,423.26l-3.351,44.249A13.824,13.824,0,0,0,275.368,481.5Z" transform="translate(-396.947 -264.014)" fill="#e9d7ae"/>
    <path id="Path_74" data-name="Path 74" d="M190.07,594.085H173.49L165.6,530.133h24.47Z" transform="translate(-242 -120)" fill="#e9d7ae"/>
    <path id="Path_75" data-name="Path 75" d="M349.245,754.171l-53.461,0v-.676a20.809,20.809,0,0,1,20.807-20.808h32.655Z" transform="translate(-396.947 -264.014)" fill="#2f2e41"/>
    <path id="Path_76" data-name="Path 76" d="M249.331,555.947l-15.484,5.964-30.371-56.884,22.852-8.8Z" transform="translate(-242 -120)" fill="#e9d7ae"/>
    <path id="Path_77" data-name="Path 77" d="M414.008,713.449l-49.925,19.23-.243-.631a20.825,20.825,0,0,1,11.947-26.917h0l30.493-11.746Z" transform="translate(-396.947 -264.014)" fill="#2f2e41"/>
    <path id="Path_78" data-name="Path 78" d="M141.884,299.94,137.2,326.966l74.959,228,40.017-12.216-28.594-84.1-28.894-124.7-.626-44.446Z" transform="translate(-242 -120)" fill="#121419"/>
    <path id="Path_79" data-name="Path 79" d="M158.371,581.952l13.5-92.314-2.177-17.422,24.368-53.478-2.808-126.752,53.137,7.954L223.581,463.2l-27.1,95.885-5.444,20.688Z" transform="translate(-242 -120)" fill="#121419"/>
    <circle id="Ellipse_34" data-name="Ellipse 34" cx="30.488" cy="30.488" r="30.488" transform="translate(-105.951 -100.439)" fill="#e9d7ae"/>
    <path id="Path_80" data-name="Path 80" d="M351.576,161.622A37.581,37.581,0,0,0,330.2,145.28l-6.536,5.229,2.541-6.1a34.6,34.6,0,0,0-6.46-.373l-5.881,7.561,2.434-7.3a37.222,37.222,0,0,0-25.677,15.273c-7.485,10.792-6.984,25.794.378,36.671,2.021-6.21,2.71-12.031,4.73-18.241a18.382,18.382,0,0,0,4.788.023l2.459-5.737.687,5.494c7.62-.664,18.924-2.122,26.148-3.457l-.7-4.215,4.2,3.5c2.213-.51,3.528-.972,3.419-1.325,5.373,8.662,10.7,14.195,16.07,22.856C354.837,182.924,358.438,172.768,351.576,161.622Z" transform="translate(-396.947 -264.014)" fill="#2f2e41"/>
    <path id="Path_81" data-name="Path 81" d="M380.715,232.41s-58.061-5.161-83.473,15.93l-7.879,189.081,4.345,14.755s20.783,4.148,46-3.007,59.628,3.007,59.628,3.007l3.7-115.78Z" transform="translate(-396.947 -264.014)" fill="#9dbbae"/>
    <path id="Path_82" data-name="Path 82" d="M295.24,440.925l18.119-183.943-3.42-15.861s-34.956,9.873-47.694,28.619l22.989,159.4v14.814Z" transform="translate(-396.947 -264.014)" fill="#244561"/>
    <path id="Path_83" data-name="Path 83" d="M376.471,428.71S327.86,263.813,345.3,233.684c0,0,35.089-9.895,51.855,2.31l9.286,101.277s18.63,57.907,4.344,71.525l3.135,13.618s-19.059,1.123-23.14,1.65S376.471,428.71,376.471,428.71Z" transform="translate(-396.947 -264.014)" fill="#244561"/>
    <path id="Path_84" data-name="Path 84" d="M273.083,268.649l-10.837,1.091s-3.9,2.116-3.417,11.52-11.245,147.212-5.383,156.161l-3.393,11.671,23.955,6.533,1.423-11.671s9.7-30.166,10.945-37.83S273.083,268.649,273.083,268.649Z" transform="translate(-396.947 -264.014)" fill="#244561"/>
    <path id="Path_85" data-name="Path 85" d="M392.023,426.417a13.75,13.75,0,0,1,15.86-13.891l22.923-43.15,12.161,22.289-23.633,37.559a13.824,13.824,0,0,1-27.311-2.807Z" transform="translate(-396.947 -264.014)" fill="#e9d7ae"/>
    <path id="Path_86" data-name="Path 86" d="M383.163,241.344l12.908-5.35s21.018,11.424,22.7,22.7,43.28,84.293,43.28,84.293-14.872,65-28.233,68.947l-7.261,8.013L406.5,407.023l6.5-6.5s-.171-34.386,5.824-40.546c0,0-16.872-43.181-24.494-47.536S383.163,241.344,383.163,241.344Z" transform="translate(-396.947 -264.014)" fill="#244561"/>
  </g>
</svg>
