<svg xmlns="http://www.w3.org/2000/svg" width="611.723" height="391.954" viewBox="0 0 611.723 391.954"><rect width="611.461" height="391.607" transform="translate(0.262 0.347)" fill="#f3f2f5"/><rect width="576.492" height="319.322" transform="translate(19.746 49.464)" fill="#fff"/><rect width="611.461" height="25.977" fill="#9dbbae"/><circle cx="4.815" cy="4.815" r="4.815" transform="translate(14.49 8.466)" fill="#fff"/><circle cx="4.815" cy="4.815" r="4.815" transform="translate(32.765 8.466)" fill="#fff"/><circle cx="4.815" cy="4.815" r="4.815" transform="translate(51.04 8.466)" fill="#fff"/><path d="M297.743,192.205,259.61,229.862l38.133,37.656,8.58-8.58L277.488,230.1l29.076-29.076Z" transform="translate(-177.138 -97.984)" fill="#9dbbae"/><path d="M328.988,192.205l38.132,37.657-38.132,37.656-8.58-8.58L349.245,230.1l-29.078-29.077Z" transform="translate(-177.138 -97.984)" fill="#9dbbae"/><path d="M452.332,201.655c-3.119,0-5.647,1.794-5.647,4.006s2.528,4.006,5.647,4.006H718.546c3.119,0,5.647-1.794,5.647-4.006s-2.528-4.006-5.647-4.006Z" transform="translate(-177.138 -97.984)" fill="#e6e6e6"/><path d="M715.9,421.134H268.061c-4.578,0-8.288-2.643-8.293-5.9V336.192c.005-3.257,3.715-5.9,8.293-5.9H715.9c4.578,0,8.288,2.643,8.293,5.9v79.041C724.188,418.49,720.477,421.13,715.9,421.134ZM268.061,332.65c-2.747,0-4.973,1.586-4.976,3.54v79.041c0,1.954,2.229,3.538,4.976,3.54H715.9c2.747,0,4.973-1.586,4.976-3.54V336.192c0-1.954-2.229-3.538-4.976-3.54Z" transform="translate(-177.138 -97.984)" fill="#e6e6e6"/><circle cx="20.036" cy="20.036" r="20.036" transform="translate(117.004 257.659)" fill="#e6e6e6"/><path d="M370.688,359.655a4.006,4.006,0,0,0-.01,8.012H559.549a4.006,4.006,0,0,0,0-8.012Z" transform="translate(-177.138 -97.984)" fill="#e6e6e6"/><path d="M370.688,383.692a4.006,4.006,0,1,0-.01,8.012h81.276a4.006,4.006,0,1,0,.01-8.012Z" transform="translate(-177.138 -97.984)" fill="#e6e6e6"/><path d="M450.388,225.655a4.019,4.019,0,0,0,0,8.012h174.47a4.019,4.019,0,0,0,0-8.012Z" transform="translate(-177.138 -97.984)" fill="#e6e6e6"/><path d="M451.536,249.655c-2.679,0-4.851,1.794-4.851,4.006s2.172,4.006,4.851,4.006h228.7c2.679,0,4.851-1.794,4.851-4.006s-2.172-4.006-4.851-4.006Z" transform="translate(-177.138 -97.984)" fill="#e6e6e6"/></svg>