<svg xmlns="http://www.w3.org/2000/svg" width="503.062" height="509.512" viewBox="0 0 503.062 509.512"><path d="M117.51,88.744l-3.835,20.135,19.122,5.39-2.376-21.5Z" transform="translate(-4.682 -3.655)" fill="#a0616a"/><path d="M0,523.4a1.138,1.138,0,0,0,1.141,1.141H501.921a1.141,1.141,0,0,0,0-2.282H1.141A1.138,1.138,0,0,0,0,523.4Z" transform="translate(0 -21.509)" fill="#3f3d56"/><g transform="translate(102.727 227.535)"><path d="M345.828,238.309H148.63A40.491,40.491,0,0,0,108.139,278.8V470.019A40.491,40.491,0,0,0,148.63,510.51h197.2a40.491,40.491,0,0,0,40.491-40.491V278.8a40.491,40.491,0,0,0-40.491-40.491h0Z" transform="translate(-107.18 -237.35)" fill="#fff"/><path d="M345.787,511.427h-197.2a41.5,41.5,0,0,1-41.45-41.449V278.758a41.5,41.5,0,0,1,41.45-41.45h197.2a41.5,41.5,0,0,1,41.45,41.45V469.977a41.5,41.5,0,0,1-41.45,41.449Zm-197.2-272.2a39.577,39.577,0,0,0-39.532,39.532V469.978a39.576,39.576,0,0,0,39.532,39.531h197.2a39.576,39.576,0,0,0,39.532-39.531V278.759a39.577,39.577,0,0,0-39.532-39.532Z" transform="translate(-107.139 -237.309)" fill="#3f3d56"/><path d="M367.269,324.246H288.006a6.1,6.1,0,1,1,0-12.194h79.263a6.1,6.1,0,0,1,0,12.194h0Z" transform="translate(-114.337 -240.387)" fill="#9dbbae"/><path d="M289.921,374.474H212.874a3.523,3.523,0,1,1,0-7.045h77.048a3.523,3.523,0,0,1,0,7.045Z" transform="translate(-111.349 -242.668)" fill="#9dbbae"/><rect width="44.583" height="5.716" rx="0.31" transform="translate(25.388 14.055)" fill="#9dbbae"/><circle cx="4.573" cy="4.573" r="4.573" transform="translate(213.267 10.625)" fill="#3f3d56"/><circle cx="4.573" cy="4.573" r="4.573" transform="translate(225.842 10.625)" fill="#3f3d56"/><circle cx="4.573" cy="4.573" r="4.573" transform="translate(238.417 10.625)" fill="#3f3d56"/><path d="M149.868,394.4a1.138,1.138,0,0,0,1.141,1.141H346.885a1.141,1.141,0,0,0,0-2.282H151.009a1.138,1.138,0,0,0-1.141,1.141Z" transform="translate(-108.899 -243.731)" fill="#3f3d56"/></g><g transform="translate(92.842 51.129)"><path d="M211.22,100.785c4.17-3.446,9.328-4.087,11.52-1.433s.589,7.6-3.583,11.044a13.538,13.538,0,0,1-5.713,2.871l-17.853,14.376-6.568-8.522,18.3-13.268a13.538,13.538,0,0,1,3.9-5.07h0Z" transform="translate(-100.627 -55.154)" fill="#a0616a"/><path d="M104.553,133.676c-.009-.636,0-6.182,4.1-9.687,4.716-4.027,11.371-2.4,13.705-1.825,5.392,1.32,5.834,3.634,10.9,6.01,9.474,4.446-2.4,2.171,3.241.745,1.951-.494,30.023-2.44,37.01-6.741,13.59-8.364,22.849-13.436,22.849-13.436l6.053,12.106a107.9,107.9,0,0,1-21.072,21.187c-12.637,9.249-18.955,13.873-28.557,15.66-.827.154-21.163,3.626-37.543-8.611-3.736-2.791-10.581-7.905-10.688-15.408h0Z" transform="translate(-97.148 -55.608)" fill="#e6e6e6"/><circle cx="21.087" cy="21.087" r="21.087" transform="translate(5.094 5.105)" fill="#a0616a"/><g transform="translate(40.03 98.078)"><path d="M294.961,227.443l-21.717-22.23-11.21,11.694,16.179,21.315,16.049,1.835Z" transform="translate(-143.663 -157.659)" fill="#a0616a"/><path d="M165.874,183.715c1.27.106,5.307.914,9.165-1.208a12.535,12.535,0,0,0,4.44-4.288c5.658-8.5,27.376-21.75,46.868-22.566,4.414-.185,7.319.327,9.96,1.7,3.745,1.952,5.239,4.748,9.991,11.3,2.6,3.583,5.475,6.958,8.106,10.518,15.4,20.841,21.239,22.477,20.642,29.159-.662,7.413-8.657,14.446-13.971,13.635-2.176-.332-3.019-1.846-5.926-4.909-8.525-8.982-12.052-7.322-18.121-14.2-7.086-8.032-6.159-14.692-9.856-14.949-3.428-.239-4.885,5.443-12.2,12.99-3.349,3.454-5.734,5.038-13,10.078-28.3,19.63-28.747,21.009-34.457,22.575-2.5.685-20.23,5.546-26.547-2.19-9.885-12.107,13.467-48.594,24.913-47.643h0Z" transform="translate(-138.579 -155.617)" fill="#2f2e41"/><path d="M288.562,233.235c1.6-.717,3.465-1.556,4.066-3.484a4.635,4.635,0,0,0-.668-4.026c-.97-1.283-2.4-1.452-2.347-1.679.088-.346,3.482-.211,7.208,1.106a28.835,28.835,0,0,1,7.939,4.575c3.246,2.534,2.809,3.042,4.845,4.5,6.248,4.485,12.108.95,15.489,5.156a6.662,6.662,0,0,1,1.312,5.792c-1.1,3.742-6.465,5.03-9.4,5.7-7.058,1.6-12.4.294-17.979-.646-18.972-3.2-29.631-.285-31.058-4.68-.27-.832.169-.761,1.632-6.865,1.444-6.025,1.4-7.68,2.626-8.162,1.851-.726,3.094,2.577,7.756,3.708a13.213,13.213,0,0,0,8.576-.994Z" transform="translate(-143.905 -158.428)" fill="#2f2e41"/></g><g transform="translate(26.117 134.755)"><path d="M255.192,302.929,249.7,272.34l-15.842,3.381,1.42,26.722,12.249,10.531Z" transform="translate(-128.591 -197.101)" fill="#a0616a"/><path d="M171.472,195.572c.992.8,3.878,3.736,8.262,4.146a12.535,12.535,0,0,0,6.081-1.055c9.454-3.854,34.866-2.624,51.452,7.646,3.756,2.326,5.873,4.38,7.285,7,2,3.718,1.669,6.871,1.923,14.959.139,4.424.623,8.832.8,13.255,1.04,25.893,4.952,30.525.707,35.719-4.711,5.762-15.276,7.092-19.217,3.437-1.614-1.5-1.462-3.223-2.147-7.39-2.01-12.219-5.861-12.827-7.02-21.927-1.353-10.625,3.154-15.615.24-17.9-2.7-2.123-7.1,1.76-17.393,3.9-4.711.977-7.574.949-16.416,1.039-34.436.354-35.584,1.242-41.188-.669-2.452-.836-19.854-6.771-20.737-16.719-1.381-15.568,38.431-32.647,47.367-25.433h0Z" transform="translate(-124.069 -193.869)" fill="#2f2e41"/><path d="M246.4,304.2c1.724.3,3.741.658,5.321-.6a4.636,4.636,0,0,0,1.708-3.706c-.082-1.606-1.175-2.552-1-2.707.267-.236,3,1.781,5.343,4.963a28.834,28.834,0,0,1,4,8.244c1.263,3.92.616,4.095,1.48,6.447,2.651,7.22,9.485,7.585,9.921,12.964a6.662,6.662,0,0,1-2.167,5.529c-3.014,2.477-8.174.532-10.973-.564-6.74-2.638-10.426-6.72-14.514-10.63-13.9-13.3-24.358-16.875-23.071-21.313.244-.84.567-.535,5.205-4.765,4.578-4.175,5.468-5.57,6.756-5.279,1.939.438,1.113,3.87,4.336,7.423A13.213,13.213,0,0,0,246.4,304.2Z" transform="translate(-128.117 -197.941)" fill="#2f2e41"/></g><path d="M125.974,83.549c.821-2.937-.21-4.007.841-5.325,0,0,.423-.53,4.2-1.962h0c-1.116-6.472-.28-7.567-.28-7.567a4.744,4.744,0,0,1,4.2-1.4c2.777.349,3.268,2.859,5.045,2.8,2.454-.078,5.4-4.99,4.484-9.248-.745-3.473-3.959-6.053-4.764-5.605s-3.674-1.513-4.764-1.121c-.745.268-4.25-.088-5.045.28-.868.4-3.354,2.91-3.591,2.594-1.651-2.2-1.616-2.962-2.574-3.435-1.7-.838-3.543.711-6.726,2.242-6.548,3.15-8.466,1.271-11.49,3.924-1.528,1.34-2.347,3.9-3.924,8.968-2.2,7.086-3.307,10.63-2.242,14.013,1.086,3.45,2.685,2.7,5.045,7.567,2.627,5.419,1.722,8.568,4.2,9.809,1.918.959,5,.349,6.166-1.4,1.993-3-3.158-7.049-1.4-11.771,1.079-2.9,4.406-5.1,6.446-4.484,2.307.692,2.477,4.828,3.924,4.764,1.239-.055,2.1-3.132,2.242-3.643h0Z" transform="translate(-96.917 -53.326)" fill="#2f2e41"/><path d="M109.933,105.81c4.315-4.838,21.892.169,23.541,7.847.679,3.158-1.826,4.491-1.121,8.127,1.032,5.318,6.874,4.956,11.21,10.369,6.156,7.686-.186,15.2,6.726,28.025,1.477,2.741,2.722,5.051,5.325,7.287,5.973,5.13,11.532,3.371,14.573,8.127,2.274,3.557,1.34,7.941,1.121,8.968-.9,4.211-3.33,5.237-5.045,8.688-2.852,5.741.377,9.956.561,16.815.229,8.582-4.331,20.479-13.452,24.382-10.247,4.385-22.606-2.878-28.586-10.089-3.569-4.3-4.6-8.273-6.166-13.172-6.977-21.9-10.919-19.916-16.255-37.274-6.1-19.843-7.3-43.09,0-50.446a21.008,21.008,0,0,0,5.325-7.287c2.281-5.461.31-8.2,2.242-10.369h0Z" transform="translate(-96.851 -55.409)" fill="#e6e6e6"/><g transform="translate(0 68.545)"><path d="M175.836,222.424c3.346,4.251,3.864,9.423,1.159,11.551s-7.61.408-10.956-3.845a13.538,13.538,0,0,1-2.735-5.779l-13.948-18.19,7.207-5.5,14.3,17.741a13.538,13.538,0,0,1,4.976,4.018h0Z" transform="translate(-98.993 -127.938)" fill="#a0616a"/><path d="M122.59,125.11c.621-.139,6.051-1.264,10.32,2.04,4.9,3.8,4.667,10.643,4.583,13.045-.192,5.548-2.367,6.453-3.66,11.895-2.42,10.182,2.189,19.644,4.735,24.871a54.292,54.292,0,0,0,9.349,13.309,118.036,118.036,0,0,0,20.741,17.7l-10.507,9.339s-16.736-5.1-28.076-15.321c-11.633-10.483-29.521-47.576-33.23-56.611-.319-.778,4.2,11.872,12.842-6.66,1.97-4.227,5.58-11.972,12.9-13.607h0Z" transform="translate(-96.83 -124.814)" fill="#e6e6e6"/></g></g><g transform="translate(180.537 319.294)"><path d="M273.474,421.54c-6.678,1.024-11.563,5.3-10.911,9.549s6.594,6.864,13.274,5.839a16.905,16.905,0,0,0,7.425-2.939l28.241-4.694-1.885-11.163-28.177,3.987a16.911,16.911,0,0,0-7.967-.579Z" transform="translate(-191.348 -336.514)" fill="#ffb6b6"/><path d="M396.024,385.347l-10.951,23.237-55.05,18.532-45.68,2.436L283.2,418.58l49.506-10.351,50.8-24.006Z" transform="translate(-192.2 -335.118)" fill="#e6e6e6"/><path d="M294.007,476.994l-9.832,24.867-12.723-8.674,7.518-26.024Z" transform="translate(-191.716 -338.534)" fill="#ffb6b6"/><path d="M251.034,467.765,225.01,492.633l10.409,10.988,26.6-20.82Z" transform="translate(-189.804 -338.558)" fill="#ffb6b6"/><path d="M404.715,382.677l-.29-2.024-6.65-13.012L375.8,373.425l4.048,17.927Z" transform="translate(-196.014 -334.435)" fill="#ffb6b6"/><path d="M391.412,471.6l.676,8.686s2.794,36.422-19.76,39.314-32.386,5.783-45.687-16.771l-20.819-37.012-12.161,14.469-16.177-12.734S289.05,422.439,298.3,420.7a21.1,21.1,0,0,1,3.452-.349,23.828,23.828,0,0,1,19.465,9.727l26.24,35.152L357,460.9l34.41,10.7h0Z" transform="translate(-191.965 -336.606)" fill="#2f2e41"/><path d="M264.806,501.723l5.2-9.832,15.036,10.41s3.47,12.723-1.735,14.458-19.663-.578-19.663-.578-26.6,5.783-27.181.578,12.145-6.362,12.145-6.362l16.193-8.675h0Z" transform="translate(-190.275 -339.552)" fill="#2f2e41"/><path d="M321.929,492.1l-40.193-25.325-20.53,18.385-13.88-16.193s25.446-37.591,32.964-39.325a193.784,193.784,0,0,1,19.663-2.892l37.012,34.121L321.929,492.1Z" transform="translate(-190.723 -336.869)" fill="#2f2e41"/><path d="M222.919,491.288l13.3,14.458-1.754,1.5s-3.451,15.03-11.547,9.945-8.675-6.241-8.675-6.241-23.133,5.2-25.446-4.048,4.048-7.518,4.048-7.518l5.776,3.47,24.3-11.566Z" transform="translate(-188.292 -339.527)" fill="#2f2e41"/><circle cx="18.506" cy="18.506" r="18.506" transform="translate(168.219 8.338)" fill="#ffb6b6"/><path d="M377.55,388.1l26.6-8.1s10.41,24.289,8.675,35.277-17.541,63.337-17.541,63.337L360.2,459.235s-.578-11.566-2.313-16.771-7.229-21.109,4.916-34.41S377.55,388.1,377.55,388.1Z" transform="translate(-195.163 -334.944)" fill="#e6e6e6"/><g transform="translate(119.956 64.826)"><path d="M317.281,513.965c-4.329,5.187-5.163,11.625-1.861,14.38s9.486.783,13.816-4.406a16.91,16.91,0,0,0,3.622-7.117l18.066-22.208-8.8-7.122-18.487,21.636a16.906,16.906,0,0,0-6.356,4.838h0Z" transform="translate(-313.4 -404.197)" fill="#ffb6b6"/><path d="M396.956,400.619l6.288,24.906-30.775,49.263-31.417,31.575-10.184-8.448,31.685-39.424,24.016-50.8Z" transform="translate(-314.12 -400.619)" fill="#e6e6e6"/></g><path d="M365.1,356.673c4.746-.011,5.016.02,5.783,0,5.887-.155,7.426-2.471,10.41-2.313,5.325.282-1.7,26.982-4.627,39.326-2.867,12.106,6.822,22.954,7.518,23.711,9.834,10.7,27.108,12.651,30.072,8.1,2.4-3.687-6.1-9.292-4.048-17.349,2.009-7.877,11.286-7.038,13.88-14.458,2.716-7.771-6.411-11.69-12.145-30.651-3.293-10.889-2.71-12.918-5.783-19.663-8.213-18.028-48.471-10.352-43.952,6.361.874,3.233-1.452,6.95,2.891,6.94Z" transform="translate(-195.44 -333.008)" fill="#f5ce76"/></g><g transform="translate(204.824)"><path d="M418.093,123.266H223.6a9.987,9.987,0,0,1-9.975-9.975V9.975A9.987,9.987,0,0,1,223.6,0h194.5a9.986,9.986,0,0,1,9.975,9.975V113.291a9.986,9.986,0,0,1-9.975,9.975Z" transform="translate(-213.622)" fill="#fff"/><path d="M418.093,123.266H223.6a9.987,9.987,0,0,1-9.975-9.975V9.975A9.987,9.987,0,0,1,223.6,0h194.5a9.986,9.986,0,0,1,9.975,9.975V113.291a9.986,9.986,0,0,1-9.975,9.975ZM223.6,1.666a8.319,8.319,0,0,0-8.309,8.309V113.291A8.319,8.319,0,0,0,223.6,121.6h194.5a8.319,8.319,0,0,0,8.309-8.309V9.975a8.319,8.319,0,0,0-8.309-8.309H223.6Z" transform="translate(-213.622)" fill="#3f3d56"/><circle cx="2.499" cy="2.499" r="2.499" transform="translate(186.961 7.496)" fill="#3f3d56"/><circle cx="2.499" cy="2.499" r="2.499" transform="translate(193.624 7.496)" fill="#3f3d56"/><circle cx="2.499" cy="2.499" r="2.499" transform="translate(200.287 7.496)" fill="#3f3d56"/><path d="M228.335,52.554a1.251,1.251,0,0,0-1.249,1.249,1.261,1.261,0,0,0,1.249,1.249H415.3a1.251,1.251,0,0,0,1.249-1.249,1.261,1.261,0,0,0-1.249-1.249Z" transform="translate(-214.177 -2.164)" fill="#e6e6e6"/><path d="M391.958,52.119v3.332H228.317a1.678,1.678,0,0,1-1.666-1.666,1.671,1.671,0,0,1,1.666-1.666H391.958Z" transform="translate(-214.159 -2.147)" fill="#9dbbae"/><path d="M420.351,45.318H403.694a3.332,3.332,0,1,1,0-6.663h16.658a3.332,3.332,0,1,1,0,6.663Z" transform="translate(-221.313 -1.592)" fill="#e6e6e6"/><path d="M304.072,27.076H229.549a3.332,3.332,0,0,1,0-6.663h74.523a3.332,3.332,0,1,1,0,6.663Z" transform="translate(-214.141 -0.841)" fill="#e6e6e6"/><path d="M228.335,91.643a1.251,1.251,0,0,0-1.249,1.249,1.261,1.261,0,0,0,1.249,1.249H415.3a1.251,1.251,0,0,0,1.249-1.249,1.261,1.261,0,0,0-1.249-1.249Z" transform="translate(-214.177 -3.774)" fill="#e6e6e6"/><path d="M327.827,91.209V94.54H228.318a1.678,1.678,0,0,1-1.666-1.666,1.671,1.671,0,0,1,1.666-1.666Z" transform="translate(-214.159 -3.756)" fill="#9dbbae"/><path d="M420.351,84.408H403.694a3.332,3.332,0,1,1,0-6.663h16.658a3.332,3.332,0,1,1,0,6.663Z" transform="translate(-221.313 -3.202)" fill="#e6e6e6"/></g></svg>