<svg xmlns="http://www.w3.org/2000/svg" width="602.175" height="327.555" viewBox="0 0 602.175 327.555"><g transform="translate(0 0)"><path d="M342.789,588.808a306.376,306.376,0,0,1-2.888,39.367c-.063.458-.132.916-.2,1.375l-123.345-.689c-.362-.455-.719-.916-1.064-1.382-1.152-1.542-2.231-3.128-3.222-4.769-4.762-7.9-6.942-17.159-4.758-23.544l.039-.1a11.2,11.2,0,0,1,2.187-3.8c4.981-5.607,15.053-4.672,24.192-.147-8.2-8.973-14.725-20.3-15.221-30.4-.486-9.858,4.669-16.9,10.26-22.886.183-.2.367-.39.55-.582.089-.1.183-.192.272-.291,4.362-4.561,9.448-9.057,16.809-8.513,8.073.6,17.024,7.36,23.3,15.24s10.446,16.819,14.674,25.549,8.812,17.672,15.6,25.129c-9.2-11.636-16.617-24.875-19.356-37.751s-.329-25.243,7.87-31.307a19.175,19.175,0,0,1,8.4-3.389c.354-.059.713-.107,1.078-.149,7.59-.864,16.652,1.761,24.362,8.036,8.491,6.909,14.378,17.151,17.307,26.874S342.884,579.76,342.789,588.808Z" transform="translate(-206.467 -303.984)" fill="#f2f2f2"/><path d="M262.556,651.682l-2.359-.013q-1.123-.7-2.257-1.388c-.468-.3-.941-.58-1.415-.87q-11.735-7.167-23.617-13.75t-23.862-12.569a.988.988,0,0,1-.568-1.13.285.285,0,0,1,.039-.083c.111-.209.361-.3.724-.117.98.492,1.967.983,2.947,1.486q12.023,6.083,23.943,12.774t23.688,13.965c.165.1.33.206.5.307C261.064,650.756,261.808,651.219,262.556,651.682Z" transform="translate(-206.933 -326.549)" fill="#fff"/><path d="M299.343,634.088l-1.458-.008c-.329-.46-.652-.921-.981-1.381q-11.593-16.257-23.181-32.514-18.977-26.615-37.942-53.23a.94.94,0,0,1-.164-.321c-.108-.393.18-.623.55-.582a1.108,1.108,0,0,1,.771.49q10.639,14.926,21.274,29.84l37.751,52.958c.8,1.12,1.6,2.246,2.4,3.367C298.691,633.167,299.02,633.628,299.343,634.088Z" transform="translate(-213.309 -308.785)" fill="#fff"/><path d="M352.757,620.788c-.074,2.458-.237,4.877-.45,7.273q-.062.688-.124,1.375l-1.53-.009c.047-.458.094-.917.135-1.375.323-3.462.553-6.963.584-10.559a147.309,147.309,0,0,0-2.9-29.693,184.881,184.881,0,0,0-8.982-30.849,211.849,211.849,0,0,0-14.7-30.522.815.815,0,0,1-.135-.542c.063-.436.644-.565,1.078-.149a1.267,1.267,0,0,1,.219.277q1.059,1.821,2.079,3.652A211.706,211.706,0,0,1,342.1,560.3a184,184,0,0,1,8.374,30.9,145.329,145.329,0,0,1,2.282,29.6Z" transform="translate(-234.231 -303.955)" fill="#fff"/><path d="M889.326,564.258c0-5.916-22.265-10.711-49.731-10.711s-49.731,4.8-49.731,10.711c0,3.791,9.154,7.12,22.953,9.024v58.687a4.973,4.973,0,0,0,9.946,0V574.339c5.258.407,10.923.63,16.832.63s11.574-.223,16.832-.63v57.629a4.973,4.973,0,1,0,9.946,0V573.281C880.172,571.378,889.326,568.049,889.326,564.258Z" transform="translate(-343.514 -310.547)" fill="#ccc"/><circle cx="21.422" cy="21.422" r="21.422" transform="translate(480.158 112.826)" fill="#2f2e41"/><path d="M581.655,403.925h-9.38l-4.462-36.179h13.844Z" transform="translate(-133.387 -86.388)" fill="#a0616a"/><path d="M561.391,411.531h18.09v11.39H550A11.39,11.39,0,0,1,561.391,411.531Z" transform="translate(-129.202 -96.674)" fill="#2f2e41"/><path d="M564.02,396.32l-8.95-2.809,6.574-35.856,13.208,4.144Z" transform="translate(-130.393 -84.018)" fill="#a0616a"/><path d="M11.39,0h18.09V11.39H0A11.39,11.39,0,0,1,11.39,0Z" transform="translate(408.217 301.521) rotate(17.423)" fill="#2f2e41"/><path d="M774.049,602.035a3.413,3.413,0,0,1-1.2-.219l-6.9-2.587a3.455,3.455,0,0,1-2.153-3.966c1.737-7.812,7.658-34.406,10.9-48.671,3.845-16.92,59.939-20.064,62.325-20.19l.2-.01,6.31,7.93c2.28,7.329,1.557,13.045-2.148,16.991-10.812,11.512-43.1,4.369-46.945,3.465l-17.159,45.042A3.453,3.453,0,0,1,774.049,602.035Z" transform="translate(-337.371 -304.168)" fill="#121419"/><path d="M787.049,609.035a3.41,3.41,0,0,1-1.2-.219l-6.9-2.587a3.455,3.455,0,0,1-2.153-3.966c1.737-7.812,7.658-34.406,10.9-48.671,3.845-16.92,59.939-20.064,62.325-20.19l.2-.01,6.31,7.93c2.28,7.329,1.557,13.045-2.148,16.991-10.812,11.511-43.1,4.369-46.945,3.465l-17.159,45.042A3.453,3.453,0,0,1,787.049,609.035Z" transform="translate(-340.425 -305.812)" fill="#121419"/><path d="M759.7,487.264a8.036,8.036,0,0,1,.677,1.072l37.734,3.976,5.432-7.447,12.311,6.729-10.669,18.072-46.278-11.8a8.03,8.03,0,1,1,.793-10.6Z" transform="translate(-333.038 -294.23)" fill="#a0616a"/><path d="M866.308,524.8a3.443,3.443,0,0,1-1.568-.383c-7.545-3.837-22.238-10.481-35.863-11.872a3.36,3.36,0,0,1-2.368-1.339,3.457,3.457,0,0,1-.638-2.686c1.229-6.806,4.05-24.136,3.686-38.026a18.818,18.818,0,0,1,14.217-18.72h0a61.1,61.1,0,0,1,7.584-1.5,18.971,18.971,0,0,1,21.085,22.005c-2.43,14.394-4.879,34.5-2.75,48.531a3.448,3.448,0,0,1-1.391,3.327,3.388,3.388,0,0,1-1.994.657Z" transform="translate(-351.96 -286.252)" fill="#acdf3e"/><path d="M827.544,490.068a3.44,3.44,0,0,1-1.367-.285l-9.83-4.255A3.447,3.447,0,0,1,814.556,481l7.6-17.553a8.8,8.8,0,0,1,16.149,6.99l-7.6,17.553a3.451,3.451,0,0,1-3.16,2.078Z" transform="translate(-349.248 -288.135)" fill="#acdf3e"/><circle cx="18.791" cy="18.791" r="18.791" transform="translate(482.006 120.469)" fill="#a0616a"/><path d="M836.026,401.9a67.779,67.779,0,0,0,29.323,9.662l-3.091-3.7a22.715,22.715,0,0,0,7.016,1.393,7.684,7.684,0,0,0,6.263-2.932,7.148,7.148,0,0,0,.478-6.6,13.538,13.538,0,0,0-4.259-5.325,25.354,25.354,0,0,0-23.6-4.218,15.153,15.153,0,0,0-7.048,4.521c-1.781,2.2-5.211,4.156-4.3,6.834Z" transform="translate(-354.358 -271.876)" fill="#2f2e41"/><path d="M844.213,381.164A57.754,57.754,0,0,0,823.2,367.576c-5.079-1.882-10.608-3.044-15.918-1.976s-10.332,4.742-11.813,9.952c-1.211,4.26.039,8.847,1.919,12.858s4.39,7.729,5.91,11.889a27.136,27.136,0,0,1-27.305,36.389c5.217.7,10.027,3.151,15.126,4.456s11.119,1.217,14.909-2.437c4.01-3.866,4.09-10.151,3.9-15.717q-.432-12.412-.865-24.823c-.147-4.22-.272-8.575,1.249-12.513s5.138-7.387,9.361-7.352c3.2.027,6.032,1.966,8.6,3.877s5.283,3.951,8.47,4.236,6.827-2.074,6.588-5.266" transform="translate(-340.256 -266.3)" fill="#2f2e41"/><path d="M817.153,528.907a8.419,8.419,0,1,1,3.245-16.192h0a8.092,8.092,0,0,1,1,.508l34.23-15.368.962-9.284,14.755-.395-.1,15.456a8.324,8.324,0,0,1-6.014,7.913l-40.031,11.395a7.85,7.85,0,0,1-.275.78A8.45,8.45,0,0,1,817.153,528.907Z" transform="translate(-347.949 -295.191)" fill="#a0616a"/><path d="M883.758,488.674a3.441,3.441,0,0,1-1.348.365l-10.691.657a3.447,3.447,0,0,1-3.648-3.225L866.9,467.38a8.8,8.8,0,1,1,17.563-1.081l1.174,19.091a3.451,3.451,0,0,1-1.877,3.284Z" transform="translate(-361.606 -288.112)" fill="#acdf3e"/><path d="M2.678,0H63.12A2.678,2.678,0,0,1,65.8,2.678h0A2.678,2.678,0,0,1,63.12,5.356H2.678A2.678,2.678,0,0,1,0,2.678H0A2.678,2.678,0,0,1,2.678,0Z" transform="translate(501.593 235.647) rotate(180)" fill="#3f3d56"/><path d="M745.07,524.4V486.909a4.979,4.979,0,0,1,4.973-4.973h68.093a4.979,4.979,0,0,1,4.973,4.973V524.4a4.979,4.979,0,0,1-4.973,4.973H750.043A4.979,4.979,0,0,1,745.07,524.4Z" transform="translate(-332.991 -293.725)" fill="#3f3d56"/><circle cx="4.591" cy="4.591" r="4.591" transform="translate(446.507 207.339)" fill="#fff"/><path d="M472.189,451.013a7.693,7.693,0,0,0-11.721-1.334l-24.295-12.54,1.51,14.127,22.839,9.742a7.735,7.735,0,0,0,11.667-9.995Z" transform="translate(-260.428 -283.201)" fill="#ffb8b8"/><path d="M437.128,440.952a3.446,3.446,0,0,1-2.807.03l-23.077-10.01a35.48,35.48,0,0,1-17.951-17.366L381.161,388a11.091,11.091,0,1,1,17.521-13.6l21.325,39.565L439.7,428.834a3.454,3.454,0,0,1,1.214,3.765l-1.933,6.242a3.448,3.448,0,0,1-1.166,1.692,3.408,3.408,0,0,1-.686.419Z" transform="translate(-246.957 -267.454)" fill="#ccc"/><circle cx="18.791" cy="18.791" r="18.791" transform="translate(114.879 52.844)" fill="#ffb8b8"/><path d="M184.66,404.718h9.379l4.463-36.179H184.658Z" transform="translate(-43.379 -86.575)" fill="#ffb8b8"/><path d="M0,0H29.479V11.39H11.39A11.39,11.39,0,0,1,0,0Z" transform="translate(168.749 326.854) rotate(179.997)" fill="#2f2e41"/><path d="M144.66,404.718h9.379l4.463-36.179H144.658Z" transform="translate(-33.982 -86.575)" fill="#ffb8b8"/><path d="M0,0H29.479V11.39H11.39A11.39,11.39,0,0,1,0,0Z" transform="translate(138.146 326.854) rotate(179.997)" fill="#2f2e41"/><path d="M346.585,599.574a3.442,3.442,0,0,1-.822-2.723l16.422-123.168,40.8,6.929L407.34,478,396.08,594.863a3.452,3.452,0,0,1-3.134,3.033l-12.354,1.03a3.442,3.442,0,0,1-3.723-3.628l3.2-55.654a.383.383,0,0,0-.751-.122L363.491,598.2a3.449,3.449,0,0,1-3.324,2.547H349.175a3.442,3.442,0,0,1-2.59-1.176Z" transform="translate(-239.182 -291.786)" fill="#121419"/><path d="M375.115,456.214a2.7,2.7,0,0,0-3.455-.144l-8.157,6.345a3.44,3.44,0,0,1-5.422-1.765c-4-14.013-13.066-49.285-10.833-74.111,1.266-14.072,13.417-24.767,27.088-23.869,9.346.623,15.495,6.015,18.275,16.024,6.827,24.576,14.329,69.657,15.763,78.445a3.428,3.428,0,0,1-1.635,3.511,25.2,25.2,0,0,1-12.771,3.594C388.521,464.243,381.99,462.347,375.115,456.214Z" transform="translate(-239.456 -265.695)" fill="#ccc"/><path d="M379.417,486.2a7.694,7.694,0,0,0-8.4-8.284l-11.378-24.86-7.53,12.048,11.959,21.761a7.735,7.735,0,0,0,15.348-.665Z" transform="translate(-240.68 -286.941)" fill="#ffb8b8"/><path d="M355.332,458.025a3.447,3.447,0,0,1-2.227-1.709L341.124,434.2a35.48,35.48,0,0,1-3.408-24.742l6.257-27.637a11.091,11.091,0,0,1,22.182.108l-7.637,44.293,6.315,23.856a3.454,3.454,0,0,1-1.368,3.712l-5.373,3.719a3.447,3.447,0,0,1-1.961.612A3.4,3.4,0,0,1,355.332,458.025Z" transform="translate(-237.093 -267.613)" fill="#ccc"/><path d="M164.583,173.828,157.7,202.9l9.946,24.483-6.886-23.718Z" transform="translate(-37.045 -40.834)" opacity="0.2"/><path d="M361.909,337.314a12.653,12.653,0,0,1-4.887-.884c-.684-.264-1.394-.48-2.077-.744-6.03-2.33-10-8.752-10.145-15.215s3.2-12.736,8.175-16.87a31.635,31.635,0,0,1,17.853-6.747c6.943-.529,14.762,1.232,18.642,7.015a6.09,6.09,0,0,1,1.143,5.265,3.369,3.369,0,0,1-.949,1.458c-1.733,1.542-3.46.382-5.226.28-2.428-.141-4.608,1.824-5.392,4.127a12.435,12.435,0,0,0,.194,7.185,17.947,17.947,0,0,1,.9,4.369,4.392,4.392,0,0,1-1.82,3.867c-1.517.917-3.509.386-5.027-.529s-2.83-2.189-4.469-2.862-3.843-.524-4.8.97a5.306,5.306,0,0,0-.606,1.751c-.856,3.9-.659,3.668-1.515,7.566Z" transform="translate(-238.962 -250.225)" fill="#2f2e41"/><path d="M579.9,419.828a3.305,3.305,0,0,1-.618-2.835,78.291,78.291,0,0,0,0-36.361,3.306,3.306,0,0,1,.618-2.835,3.25,3.25,0,0,1,2.567-1.244h30.506a3.291,3.291,0,0,1,3.242,2.759,128.143,128.143,0,0,1,0,39,3.291,3.291,0,0,1-3.242,2.759H582.463a3.25,3.25,0,0,1-2.567-1.244Z" transform="translate(-294.023 -268.969)" fill="#e6e6e6"/><path d="M518.215,279.21a3.3,3.3,0,0,1-.617-2.834,78.294,78.294,0,0,0,0-36.361,3.3,3.3,0,0,1,.617-2.834,3.249,3.249,0,0,1,2.567-1.244h30.506a3.292,3.292,0,0,1,3.242,2.759,128.141,128.141,0,0,1,0,39,3.292,3.292,0,0,1-3.242,2.759H520.782A3.249,3.249,0,0,1,518.215,279.21Z" transform="translate(-279.533 -235.936)" fill="#e6e6e6"/><path d="M616.087,326.713a128.14,128.14,0,0,1,0-39,3.291,3.291,0,0,1,3.242-2.759h30.506A3.249,3.249,0,0,1,652.4,286.2a3.3,3.3,0,0,1,.618,2.834,78.289,78.289,0,0,0,0,36.361,3.3,3.3,0,0,1-.618,2.834,3.249,3.249,0,0,1-2.567,1.244H619.329a3.291,3.291,0,0,1-3.242-2.759Z" transform="translate(-302.341 -247.451)" fill="#acdf3e"/><path d="M449.164,324.933a128.157,128.157,0,0,1,0-39,3.292,3.292,0,0,1,3.242-2.759h30.506a3.249,3.249,0,0,1,2.567,1.244,3.3,3.3,0,0,1,.618,2.834,78.291,78.291,0,0,0,0,36.361,3.3,3.3,0,0,1-.617,2.834,3.249,3.249,0,0,1-2.567,1.244H452.406A3.292,3.292,0,0,1,449.164,324.933Z" transform="translate(-263.129 -247.033)" fill="#f5ce76"/><path d="M459.262,441.921a3.359,3.359,0,0,1-.628-2.881,79.571,79.571,0,0,0,0-36.958,3.36,3.36,0,0,1,.628-2.881,3.3,3.3,0,0,1,2.609-1.264h31.007a3.345,3.345,0,0,1,3.3,2.8,130.245,130.245,0,0,1,0,39.641,3.345,3.345,0,0,1-3.3,2.8H461.871a3.3,3.3,0,0,1-2.609-1.264Z" transform="translate(-265.681 -273.992)" fill="#acdf3e"/><path d="M218.769,663.5H810.406a.911.911,0,0,0,0-1.822H218.769a.911.911,0,1,0,0,1.822Z" transform="translate(-209.143 -335.949)" fill="#3f3d56"/><path d="M489.881,418.049H473.547a2.3,2.3,0,0,1-2.3-2.3v-.975a2.3,2.3,0,0,1,2.3-2.3h16.334a2.3,2.3,0,0,1,2.3,2.3v.975A2.3,2.3,0,0,1,489.881,418.049Z" transform="translate(-268.668 -277.41)" fill="#fff"/><path d="M489.881,430.6H473.547a2.3,2.3,0,0,1-2.3-2.3v-.975a2.3,2.3,0,0,1,2.3-2.3h16.334a2.3,2.3,0,0,1,2.3,2.3v.975a2.3,2.3,0,0,1-2.3,2.3Z" transform="translate(-268.668 -280.357)" fill="#fff"/><path d="M475.842,306.165H459.834a2.3,2.3,0,0,1-2.3-2.3v-.9a2.3,2.3,0,0,1,2.3-2.3h16.008a2.3,2.3,0,0,1,2.3,2.3v.9a2.3,2.3,0,0,1-2.3,2.3Z" transform="translate(-265.447 -251.145)" fill="#fff"/><path d="M609.521,394.295H593.513a2.3,2.3,0,0,1-2.3-2.3v-.9a2.3,2.3,0,0,1,2.3-2.3h16.008a2.3,2.3,0,0,1,2.3,2.3v.9a2.3,2.3,0,0,1-2.3,2.3Z" transform="translate(-296.85 -271.848)" fill="#fff"/><path d="M609.521,409.108H593.513a2.3,2.3,0,0,1-2.3-2.3v-.9a2.3,2.3,0,0,1,2.3-2.3h16.008a2.3,2.3,0,0,1,2.3,2.3v.9a2.3,2.3,0,0,1-2.3,2.3Z" transform="translate(-296.85 -275.327)" fill="#fff"/><path d="M609.521,423.922H593.513a2.3,2.3,0,0,1-2.3-2.3v-.9a2.3,2.3,0,0,1,2.3-2.3h16.008a2.3,2.3,0,0,1,2.3,2.3v.9a2.3,2.3,0,0,1-2.3,2.3Z" transform="translate(-296.85 -278.807)" fill="#fff"/><path d="M475.842,318.51H459.834a2.3,2.3,0,0,1-2.3-2.3v-.9a2.3,2.3,0,0,1,2.3-2.3h16.008a2.3,2.3,0,0,1,2.3,2.3v.9a2.3,2.3,0,0,1-2.3,2.3Z" transform="translate(-265.447 -254.045)" fill="#fff"/><path d="M548.019,256.146H532.011a2.3,2.3,0,0,1-2.3-2.3v-.9a2.3,2.3,0,0,1,2.3-2.3h16.008a2.3,2.3,0,0,1,2.3,2.3v.9a2.3,2.3,0,0,1-2.3,2.3Z" transform="translate(-282.402 -239.395)" fill="#fff"/><path d="M643.493,309.18H627.485a2.3,2.3,0,0,1-2.3-2.3v-.9a2.3,2.3,0,0,1,2.3-2.3h16.008a2.3,2.3,0,0,1,2.3,2.3v.9A2.3,2.3,0,0,1,643.493,309.18Z" transform="translate(-304.83 -251.853)" fill="#fff"/></g></svg>