<svg xmlns="http://www.w3.org/2000/svg" width="657.236" height="269.299" viewBox="0 0 657.236 269.299"><path d="M769.778,413.351H112.542v-269.3H769.778Zm-655.236-2H767.778v-265.3H114.542Z" transform="translate(-112.542 -144.052)" fill="#f3f2f5"/><path d="M205.37,246.689h-41.3a144.461,144.461,0,0,1,0-49.247h41.3a88.611,88.611,0,0,0,0,49.247Z" transform="translate(-112.542 -144.052)" fill="#f5ce76"/><path d="M241.128,267.667h41.3a144.46,144.46,0,0,0,0-49.247h-41.3A88.611,88.611,0,0,1,241.128,267.667Z" transform="translate(-112.542 -144.052)" fill="#e6e6e6"/><path d="M507.67,277.737H563.8a1.5,1.5,0,0,0,0-3H507.67a1.5,1.5,0,0,0,0,3Z" transform="translate(-112.542 -144.052)" fill="#e6e6e6"/><path d="M562.337,263.585l8.769,8c1,.915,3.761,2.805,4.384,4,1.288,2.475-.1,1.91-2.3,2.767a49.36,49.36,0,0,0-14.764,9.168c-1.451,1.279.677,3.394,2.121,2.121a45.832,45.832,0,0,1,13.44-8.4c1.769-.7,5.125-1.11,5.966-3.217,1.029-2.579-2.248-4.482-3.8-5.9l-11.692-10.672c-1.424-1.3-3.551.816-2.121,2.121Z" transform="translate(-112.542 -144.052)" fill="#e6e6e6"/><path d="M193.128,338.667h41.3a144.46,144.46,0,0,0,0-49.247h-41.3A88.611,88.611,0,0,1,193.128,338.667Z" transform="translate(-112.542 -144.052)" fill="#acdf3e"/><path d="M514.128,242.667h41.3a144.457,144.457,0,0,0,0-49.247h-41.3a88.611,88.611,0,0,1,0,49.247Z" transform="translate(-112.542 -144.052)" fill="#acdf3e"/><path d="M465.367,344.737h-100v-161h100Zm-98-2h96v-157h-96Z" transform="translate(-112.542 -144.052)" fill="#f3f2f5"/><rect width="16.197" height="2" transform="translate(261.825 49.684)" fill="#f3f2f5"/><rect width="16.197" height="2" transform="translate(261.825 54.684)" fill="#f3f2f5"/><rect width="16.197" height="2" transform="translate(261.825 59.684)" fill="#f3f2f5"/><rect width="69.197" height="2" transform="translate(269.825 145.684)" fill="#f3f2f5"/><rect width="69.197" height="2" transform="translate(269.825 156.684)" fill="#f3f2f5"/><rect width="69.197" height="2" transform="translate(269.825 167.684)" fill="#f3f2f5"/><path d="M450.367,206.737a7,7,0,1,1,7-7,7,7,0,0,1-7,7Zm0-12a5,5,0,1,0,5,5A5,5,0,0,0,450.367,194.737Z" transform="translate(-112.542 -144.052)" fill="#f3f2f5"/><path d="M452.367,266.737h-71v-46h71Zm-69-2h67v-42h-67Z" transform="translate(-112.542 -144.052)" fill="#f3f2f5"/><rect width="2" height="81.835" transform="translate(269.29 78.528) rotate(-57.475)" fill="#f3f2f5"/><rect width="81.835" height="2" transform="translate(269.287 120.839) rotate(-32.525)" fill="#f3f2f5"/><path d="M524.825,179.533V57.985l-11-2.452v135l83-.849-.28-10.884Z" transform="translate(-2 2.151)" fill="none"/><path d="M720.367,342.737h-100v-161h100Zm-98-2h96v-157h-96Z" transform="translate(-112.542 -144.052)" fill="#e6e6e6"/><rect width="16.197" height="2" transform="translate(516.825 47.684)" fill="#e6e6e6"/><rect width="16.197" height="2" transform="translate(516.825 52.684)" fill="#e6e6e6"/><rect width="16.197" height="2" transform="translate(516.825 57.684)" fill="#e6e6e6"/><path d="M705.367,204.737a7,7,0,1,1,7-7A7,7,0,0,1,705.367,204.737Zm0-12a5,5,0,1,0,5,5,5,5,0,0,0-5-5Z" transform="translate(-112.542 -144.052)" fill="#f3f2f5"/><path d="M707.367,264.737h-71v-46h71Zm-69-2h67v-42h-67Z" transform="translate(-112.542 -144.052)" fill="#f3f2f5"/><path d="M0,0H2V81.835H0Z" transform="translate(524.291 76.527) rotate(-57.475)" fill="#f3f2f5"/><rect width="81.835" height="2" transform="matrix(0.843, -0.538, 0.538, 0.843, 524.286, 118.837)" fill="#f3f2f5"/><path d="M707.367,324.737h-71v-46h71Zm-69-2h67v-42h-67Z" transform="translate(-112.542 -144.052)" fill="#f3f2f5"/><rect width="2" height="81.835" transform="translate(524.291 136.527) rotate(-57.475)" fill="#f3f2f5"/><rect width="81.835" height="2" transform="matrix(0.843, -0.538, 0.538, 0.843, 524.286, 178.838)" fill="#f3f2f5"/><path d="M400.128,375.667h41.3a144.46,144.46,0,0,0,0-49.247h-41.3A88.611,88.611,0,0,1,400.128,375.667Z" transform="translate(-112.542 -144.052)" fill="#acdf3e"/></svg>