<svg xmlns="http://www.w3.org/2000/svg" width="41.056" height="41.031" viewBox="0 0 41.056 41.031">
  <path id="published_with_changes_FILL0_wght400_GRAD0_opsz48" d="M17.716.028a13.96,13.96,0,0,1,8.114,5.08,14.757,14.757,0,0,1,3.2,9.509,13.4,13.4,0,0,1-1.545,6.253,18.245,18.245,0,0,1-4.15,5.285H26.76a1.117,1.117,0,1,1,0,2.233H20.47a1.082,1.082,0,0,1-1.117-1.117v-6.29a1.117,1.117,0,1,1,2.233,0v3.685a15.088,15.088,0,0,0,3.8-4.541A11.38,11.38,0,0,0,26.8,14.618,12.489,12.489,0,0,0,24.1,6.56a11.885,11.885,0,0,0-6.867-4.3,1,1,0,0,1-.614-.391,1.11,1.11,0,0,1-.242-.689,1.136,1.136,0,0,1,.409-.93,1.052,1.052,0,0,1,.93-.223Zm-6.4,29.18A13.96,13.96,0,0,1,3.2,24.127,14.757,14.757,0,0,1,0,14.618,13.4,13.4,0,0,1,1.545,8.365,18.245,18.245,0,0,1,5.695,3.08H2.27A1.082,1.082,0,0,1,1.154,1.963,1.082,1.082,0,0,1,2.27.847H8.56A1.082,1.082,0,0,1,9.677,1.963v6.29a1.117,1.117,0,1,1-2.233,0V4.569a14.582,14.582,0,0,0-3.8,4.522,11.486,11.486,0,0,0-1.414,5.527,12.489,12.489,0,0,0,2.7,8.058,11.885,11.885,0,0,0,6.867,4.3,1,1,0,0,1,.614.391,1.11,1.11,0,0,1,.242.689,1.136,1.136,0,0,1-.409.93,1.052,1.052,0,0,1-.93.223Z" transform="translate(22.396) rotate(50)" fill="#636063"/>
</svg>
