<svg xmlns="http://www.w3.org/2000/svg" width="13.035" height="12.027" viewBox="0 0 13.035 12.027">
  <path id="translate_FILL0_wght400_GRAD0_opsz48" d="M9.381,16.027a.572.572,0,0,1-.5-.225.579.579,0,0,1-.038-.556l2.21-5.863a.855.855,0,0,1,.331-.406.865.865,0,0,1,.5-.165.9.9,0,0,1,.5.165.844.844,0,0,1,.338.406l2.255,5.8a.575.575,0,0,1-.586.842.542.542,0,0,1-.316-.105.557.557,0,0,1-.21-.271l-.5-1.518H10.479l-.571,1.533a.569.569,0,0,1-.21.256A.542.542,0,0,1,9.381,16.027ZM10.81,13.08h2.135l-1.052-2.916h-.03ZM5.743,7.939a8.216,8.216,0,0,0,.5.759q.271.368.586.759A8.131,8.131,0,0,0,7.953,7.991,10.277,10.277,0,0,0,8.72,6.405H2.6a.6.6,0,1,1,0-1.2H6.209V4.6a.6.6,0,1,1,1.2,0v.6H11.02a.6.6,0,1,1,0,1.2h-1.1a11.473,11.473,0,0,1-.879,2.037,10.51,10.51,0,0,1-1.345,1.9l1.473,1.488L8.72,13.05,6.811,11.216l-2.6,2.6a.552.552,0,0,1-.406.165A.529.529,0,0,1,3.4,13.8a.529.529,0,0,1-.18-.406.577.577,0,0,1,.18-.421l2.646-2.646q-.391-.466-.737-.94a10.685,10.685,0,0,1-.631-.97.54.54,0,0,1-.03-.571.587.587,0,0,1,.541-.241.607.607,0,0,1,.323.1.648.648,0,0,1,.233.233Z" transform="translate(-2 -4)" fill="#636063"/>
</svg>
