<svg xmlns="http://www.w3.org/2000/svg" width="340" height="680" viewBox="0 0 340 680"><g transform="translate(-1396.186 -206)"><g transform="translate(1144.84 206)"><path d="M759.3,789H531.378a51.6,51.6,0,0,1-51.539-51.54V160.54A51.6,51.6,0,0,1,531.378,109H759.3a51.6,51.6,0,0,1,51.539,51.54V737.46A51.6,51.6,0,0,1,759.3,789Z" transform="translate(-223.992 -109)" fill="#3f3d56"/><path d="M770.236,125H743.564c-4.956,0-180.156,0-185.113,0H534.934c-22.684.028-41.066,17.922-41.1,40V751.214c.029,22.082,18.411,39.976,41.1,40h235.3c22.684-.028,41.066-17.922,41.1-40V165c-.029-22.082-18.411-39.976-41.1-40Z" transform="translate(-231.239 -118.109)" fill="#f3f2f5"/><path d="M479.838,271.5a4.505,4.505,0,0,1-4.5-4.5V247a4.5,4.5,0,0,1,9,0v20A4.5,4.5,0,0,1,479.838,271.5Z" transform="translate(-223.992 -109)" fill="#3f3d56"/><path d="M479.838,308.5a4.5,4.5,0,0,1-4.5-4.5V284a4.5,4.5,0,0,1,9,0v20a4.5,4.5,0,0,1-4.5,4.5Z" transform="translate(-223.992 -109)" fill="#3f3d56"/><path d="M479.838,266c-2.484,0-4.5-1.633-4.5-3.646v-16.2c0-2.014,2.015-3.646,4.5-3.646s4.5,1.632,4.5,3.646v16.2C484.336,264.363,482.323,265.994,479.838,266Z" transform="translate(-223.992 -147.496)" fill="#3f3d56"/></g><path d="M812.839,291.831c-2.484,0-4.5-1.088-4.5-2.428V241.928c0-1.341,2.015-2.428,4.5-2.428s4.5,1.087,4.5,2.428V289.4C817.336,290.743,815.323,291.829,812.839,291.831Z" transform="translate(918.848 103.225)" fill="#3f3d56"/><rect width="86" height="19" rx="9.5" transform="translate(1521 221)" fill="#3f3d56"/></g></svg>