<svg width="1220" height="279" viewBox="0 0 1220 279" fill="none" xmlns="http://www.w3.org/2000/svg">
<g clip-path="url(#clip0_1_34)">
<path d="M296.4 3.6008C296.4 95.4008 296.4 186.501 296.4 277.901C281.5 277.901 266.9 277.901 251.5 277.901C251.5 222.801 251.5 167.801 251.5 112.801C251 112.701 250.5 112.601 250 112.401C246.3 119.701 242.3 126.901 238.9 134.301C228 157.801 217.4 181.501 206.5 205.001C196 227.801 185.3 250.501 175 273.401C173.4 277.001 171.4 278.201 167.5 278.201C156.3 277.901 145.2 278.001 134 278.201C130.7 278.301 129.2 277.301 127.8 274.201C121.7 261.301 115 248.601 108.7 235.801C88.1 193.501 67.6 151.101 47 108.801C46.9 108.701 46.7 108.601 45.8 108.101C45.8 164.801 45.8 221.001 45.8 277.701C30.2 277.701 15.3 277.701 0 277.701C0 186.601 0 95.6009 0 3.80088C1.4 3.70088 3.00001 3.6008 4.60001 3.6008C17.1 3.6008 29.6 3.70083 42.1 3.50083C45.5 3.40083 47 4.50083 48.5 7.50083C81.4 75.3008 114.5 143.101 147.5 210.901C148.3 212.501 149.2 214.101 150.5 216.701C153.7 210.901 156.7 205.801 159.2 200.601C185.7 143.601 212.1 86.6008 238.5 29.5008C242 22.0008 245.3 14.3009 248.9 6.80088C249.6 5.40088 251.3 3.70078 252.6 3.70078C267 3.60078 281.5 3.6008 296.4 3.6008Z" fill="#6155ff"/>
<path d="M448.6 203.801C404.5 204.301 347 165.401 347.9 101.601C348.8 42.0007 395.8 -0.199292 450.2 0.000707876C505.6 0.200708 551.8 46.8008 551.6 102.301C551.5 158.701 505.4 204.101 448.6 203.801ZM449.7 45.7007C415.5 45.3007 392.7 74.3008 392.6 102.301C392.5 132.101 419.6 159.201 450.1 158.601C480.1 158.101 506.3 134.301 506.7 102.801C507 77.6008 486.2 44.6007 449.7 45.7007Z" fill="#6155ff"/>
<path d="M358.6 277.601C358.6 262.801 358.6 248.001 358.6 232.901C418.6 232.901 478.5 232.901 538.8 232.901C538.8 247.501 538.8 262.301 538.8 277.601C478.9 277.601 418.9 277.601 358.6 277.601Z" fill="#6155ff"/>
<path d="M765.2 80.1007C749.7 80.1007 735.5 80.1007 720.8 80.1007C720.2 77.3007 719.7 74.4007 718.9 71.6007C714.5 56.8007 703.7 50.2006 689.1 48.2006C671.6 45.9006 655 53.2007 647 67.1007C636.7 85.0007 644.3 107.901 663.6 115.101C669.7 117.401 676.5 118.401 683.1 118.801C710 120.301 733.3 128.901 750 151.101C784.7 197.101 760.7 262.701 704.2 275.501C675.7 282.001 648.7 277.501 625.3 259.101C606.7 244.501 599.3 224.401 599.1 200.801C613.9 200.801 628.3 200.801 643 200.801C644.5 213.201 650 222.901 661.3 228.901C677.6 237.501 698.6 234.701 711.3 222.101C725.5 208.101 724.8 186.701 709.7 173.501C698.8 164.001 685.7 161.101 671.7 160.601C649.4 159.701 630.9 150.301 616 134.001C604.1 121.001 599.6 105.301 599 87.7006C598.3 68.0006 602.9 50.2007 615.3 35.0007C637.2 8.00068 666.3 -0.899316 699.8 5.00068C730.4 10.4007 750.9 28.8006 760.9 58.2006C763.2 65.2006 763.8 72.6007 765.2 80.1007Z" fill="#6155ff"/>
<path d="M810.2 4.10059C863.4 4.10059 916 4.10059 968.9 4.10059C968.9 19.3006 968.9 34.2006 968.9 49.4006C916.1 49.4006 863.3 49.4006 810.2 49.4006C810.2 34.4006 810.2 19.4006 810.2 4.10059Z" fill="#6155ff"/>
<path d="M969 232.901C969 247.901 969 262.601 969 277.801C916.1 277.801 863.4 277.801 810.3 277.801C810.3 263.001 810.3 248.101 810.3 232.901C863.1 232.901 916 232.901 969 232.901Z" fill="#6155ff"/>
<path d="M810.1 163.501C810 161.801 809.9 160.501 809.9 159.201C809.9 145.901 809.9 132.601 809.9 118.901C863.1 118.901 915.9 118.901 969 118.901C969 133.701 969 148.501 969 163.501C916 163.501 863.3 163.501 810.1 163.501Z" fill="#6155ff"/>
<path d="M1112.7 118.001C1109.9 125.501 1107.1 133.001 1104.3 140.601C1092.5 173.401 1080.8 206.201 1069.1 239.101C1064.9 250.801 1061 262.601 1056.6 274.301C1056 275.901 1054 278.001 1052.6 278.001C1038.3 278.301 1024 278.101 1009.6 278.101C1009.1 278.101 1008.7 277.801 1008.1 277.601C1043 186.901 1077.9 96.3009 1113.3 4.40088C1149.1 96.2009 1184.4 186.601 1220 277.801C1218 277.901 1216.4 278.101 1214.9 278.101C1202.2 278.101 1189.6 277.901 1176.9 278.201C1173.2 278.301 1171.8 276.901 1170.6 273.601C1152.6 223.701 1134.5 173.801 1116.5 123.901C1115.8 121.901 1114.9 120.001 1114.2 118.101C1113.6 118.101 1113.1 118.101 1112.7 118.001Z" fill="#6155ff"/>
</g>
<defs>
<clipPath id="clip0_1_34">
<rect width="1220" height="279" fill="#6155ff"/>
</clipPath>
</defs>
</svg>
